<?xml version="1.0" encoding="UTF-8"?>
<svg xmlns="http://www.w3.org/2000/svg" xmlns:xlink="http://www.w3.org/1999/xlink" width="20px" height="20px" viewBox="0 0 20 20" version="1.1">
<g id="surface1">
<path style=" stroke:none;fill-rule:evenodd;fill:rgb(54.509804%,33.333333%,33.333333%);fill-opacity:1;" d="M 15 18.332031 L 5 18.332031 C 3.621094 18.332031 2.5 17.214844 2.5 15.832031 L 2.5 4.167969 C 2.5 2.785156 3.621094 1.667969 5 1.667969 L 15 1.667969 C 16.378906 1.667969 17.5 2.785156 17.5 4.167969 L 17.5 15.832031 C 17.5 17.214844 16.378906 18.332031 15 18.332031 Z M 15 16.667969 C 15.460938 16.667969 15.832031 16.292969 15.832031 15.832031 L 15.832031 4.167969 C 15.832031 3.707031 15.460938 3.332031 15 3.332031 L 5 3.332031 C 4.539062 3.332031 4.167969 3.707031 4.167969 4.167969 L 4.167969 15.832031 C 4.167969 16.292969 4.539062 16.667969 5 16.667969 Z M 12.257812 7.742188 C 12.582031 8.070312 12.582031 8.597656 12.257812 8.921875 L 11.179688 10 L 12.257812 11.078125 C 12.582031 11.402344 12.582031 11.929688 12.257812 12.257812 C 11.929688 12.582031 11.402344 12.582031 11.078125 12.257812 L 10 11.179688 L 8.921875 12.257812 C 8.597656 12.582031 8.070312 12.582031 7.742188 12.257812 C 7.417969 11.929688 7.417969 11.402344 7.742188 11.078125 L 8.820312 10 L 7.742188 8.921875 C 7.417969 8.597656 7.417969 8.070312 7.742188 7.742188 C 8.070312 7.417969 8.597656 7.417969 8.921875 7.742188 L 10 8.820312 L 11.078125 7.742188 C 11.402344 7.417969 11.929688 7.417969 12.257812 7.742188 Z M 12.257812 7.742188 "/>
</g>
</svg>
